<svg height="64" id="Layer_1" version="1.1" width="64" xml:space="preserve" xmlns="http://www.w3.org/2000/svg"><g id="loan_money_1_"><path fill="#FFD740" d="M27 43h20v4H27z"/><path fill="#FFE57F" d="M27 43h9v4h-9z"/><path fill="#FFC400" d="M27 46h20v1H27z"/><path fill="#FFF" d="M28 43h1v3h-1z"/><path fill="#FFC400" d="M40 43h1v3h-1zM42 43h1v3h-1zM44 43h1v3h-1zM46 43h1v3h-1z"/><path fill="#FFD740" d="M26 39h20v4H26z"/><path fill="#FFE57F" d="M26 39h9v4h-9z"/><path fill="#FFC400" d="M26 42h20v1H26z"/><path fill="#FFF" d="M27 39h1v3h-1z"/><path fill="#FFC400" d="M39 39h1v3h-1zM41 39h1v3h-1zM43 39h1v3h-1zM45 39h1v3h-1z"/><path d="M30.229 23.695c-3.703-3.704-3.703-9.73 0-13.436 3.705-3.703 9.731-3.703 13.436 0 3.704 3.705 3.704 9.731 0 13.436s-9.731 3.704-13.436 0z" fill="#FFD740"/><path d="M37 8c4.963 0 9 4.037 9 9s-4.037 9-9 9-9-4.037-9-9 4.037-9 9-9m0-1c-5.523 0-10 4.478-10 10s4.477 10 10 10 10-4.478 10-10S42.523 7 37 7z" fill="#FDD835"/><path d="M29.188 22.326c-1.566-3.646-.876-8.027 2.101-11.006 3.133-3.132 7.82-3.736 11.568-1.84 0-.107.002-.213.008-.319-3.852-2.358-8.949-1.882-12.283 1.452-3.184 3.184-3.77 7.98-1.762 11.76.122-.019.244-.037.368-.047z" fill="#FFF"/><path d="M37 24.5c-4.136 0-7.5-3.364-7.5-7.5s3.364-7.5 7.5-7.5 7.5 3.364 7.5 7.5-3.364 7.5-7.5 7.5z" fill="#FFE57F"/><path d="M37 10c3.859 0 7 3.141 7 7s-3.141 7-7 7-7-3.141-7-7 3.141-7 7-7m0-1c-4.418 0-8 3.584-8 8s3.582 8 8 8 8-3.584 8-8-3.582-8-8-8z" fill="#FFC400"/><path d="M37 14c.719 0 1 .521 1 1h2c0-.814-.674-1.619-2-1.894V12h-2v1.092c-1.326.24-2 1.009-2 2.408 0 1.313 1.031 2.5 3 2.5.577 0 1 .438 1 1 0 .595-.334 1-1 1s-1-.367-1-1h-2c0 1.245.684 1.78 2 1.94V22h2v-1.075c1.326-.2 2.025-.874 2-2.425 0-1.375-1-2.499-3-2.499-.563 0-1-.313-1-1.001 0-.518.281-1 1-1z" fill="#FFAB00"/><path d="M37 8c4.963 0 9 4.037 9 9s-4.037 9-9 9-9-4.037-9-9 4.037-9 9-9m0-1c-5.523 0-10 4.478-10 10s4.477 10 10 10 10-4.478 10-10S42.523 7 37 7z" fill="#FFC400"/><path fill="#FFD740" d="M27 27h20v4H27z"/><path fill="#FFE57F" d="M27 27h9v4h-9z"/><path fill="#FFC400" d="M27 30h20v1H27z"/><path fill="#FFF" d="M28 27h1v3h-1z"/><path fill="#FFC400" d="M40 27h1v3h-1zM42 27h1v3h-1zM44 27h1v3h-1zM46 27h1v3h-1z"/><path fill="#FFD740" d="M26 31h20v4H26z"/><path fill="#FFE57F" d="M26 31h9v4h-9z"/><path fill="#FFC400" d="M26 34h20v1H26z"/><path fill="#FFF" d="M27 31h1v3h-1z"/><path fill="#FFC400" d="M39 31h1v3h-1zM41 31h1v3h-1zM43 31h1v3h-1zM45 31h1v3h-1z"/><path fill="#FFD740" d="M27 35h20v4H27z"/><path fill="#FFE57F" d="M27 35h9v4h-9z"/><path fill="#FFC400" d="M27 38h20v1H27z"/><path fill="#FFF" d="M28 35h1v3h-1z"/><path fill="#FFC400" d="M40 35h1v3h-1zM42 35h1v3h-1zM44 35h1v3h-1zM46 35h1v3h-1z"/><path d="M46 44.943a2.395 2.395 0 0 1-.062.016l-.994.041s-1.348-5-7.007-5h-6.955L29 39h-2v4h2v4h17v-2.057z" fill="#37474F" opacity=".1"/><path d="M25.938 47H44c0-1 0-6-7.063-6h-11a3.001 3.001 0 0 0 .001 6z" fill="#F4D0A1"/><g fill="#F4D0A1"><path d="M43.959 46.166A90.065 90.065 0 0 1 39 47h5c0-.173-.004-.469-.041-.834z"/><path d="M55 40c-3.092 1.855-5 4-7 5.027-.64.328-1.792.648-3.062.932.041.334.062.681.062 1.041v1H28v-1h11l-9-2 1-3s-2-3-8-3c-5 0-6 2-8 2H7v13h11l16.072 4.465c1.064.295 2.739.156 3.74-.311L51 52l10-9c1-1-1-6-6-3z"/></g><path d="M55 42c-3 2-5 4-7 5.027-.629.323-1.754.539-3 .684V48H28v-1h16c0-1-.523-4-7.063-4h-6.955c-1.132-.873-3.302-2-6.982-2-5 0-6 2-8 2H7v11h11l16.072 4.465c1.064.295 2.739.156 3.74-.311L51 52l10-9c1-1 0-5-6-1z" fill="#EDBC7C"/><path d="M43 46c0-1.656-1.344-3-3-3s-2 1.344-2 3c0 .353.021.686.061 1h4.756c.111-.314.183-.647.183-1z" fill="#F6D9B4"/><path fill="#CFD8DC" d="M12 40h3v15h-3z"/><path fill="#B0BEC5" d="M12 44h3v11h-3z"/><path fill="#546E7A" d="M3 39h9v19H3z"/><path fill="#455A64" d="M3 44h9v14H3z"/></g></svg>